<mxfile host="app.diagrams.net" agent="Mozilla/5.0 (Windows NT 10.0; Win64; x64) AppleWebKit/537.36 (KHTML, like Gecko) Chrome/134.0.0.0 Safari/537.36" version="26.1.0">
  <diagram name="Page-1" id="qLTnS69y9vjdsr7TU9PW">
    <mxGraphModel dx="4200" dy="3742" grid="1" gridSize="10" guides="1" tooltips="1" connect="1" arrows="1" fold="1" page="1" pageScale="1" pageWidth="1169" pageHeight="1654" math="0" shadow="0">
      <root>
        <mxCell id="0" />
        <mxCell id="1" parent="0" />
        <mxCell id="1WSIElenzzLYNixdB_4k-29" value="" style="rounded=0;whiteSpace=wrap;html=1;movable=1;resizable=1;rotatable=1;deletable=1;editable=1;locked=0;connectable=1;" parent="1" vertex="1">
          <mxGeometry x="95" y="-30" width="935" height="1570" as="geometry" />
        </mxCell>
        <mxCell id="j39FSdekWfPAPFEz55jS-1" value="Passive Remote sensing" style="rounded=1;whiteSpace=wrap;html=1;fontStyle=1;fillColor=#dae8fc;strokeColor=#6c8ebf;gradientColor=#7ea6e0;" parent="1" vertex="1">
          <mxGeometry x="120" y="260" width="120" height="60" as="geometry" />
        </mxCell>
        <mxCell id="WP8TJN7ltj5DDx9iI1Yf-6" style="edgeStyle=orthogonalEdgeStyle;rounded=0;orthogonalLoop=1;jettySize=auto;html=1;" edge="1" parent="1" source="j39FSdekWfPAPFEz55jS-2">
          <mxGeometry relative="1" as="geometry">
            <mxPoint x="510" y="550" as="targetPoint" />
          </mxGeometry>
        </mxCell>
        <mxCell id="j39FSdekWfPAPFEz55jS-2" value="Drone imagery" style="rounded=1;whiteSpace=wrap;html=1;fontStyle=1;fillColor=#b0e3e6;strokeColor=#0e8088;" parent="1" vertex="1">
          <mxGeometry x="320" y="520" width="120" height="60" as="geometry" />
        </mxCell>
        <mxCell id="ImfYDy0Mbqy3FPbespdM-22" style="edgeStyle=orthogonalEdgeStyle;rounded=0;orthogonalLoop=1;jettySize=auto;html=1;" parent="1" source="j39FSdekWfPAPFEz55jS-3" edge="1">
          <mxGeometry relative="1" as="geometry">
            <mxPoint x="300" y="910" as="targetPoint" />
          </mxGeometry>
        </mxCell>
        <mxCell id="j39FSdekWfPAPFEz55jS-3" value="Topographic Surveys (typically GNSS assisted)" style="rounded=1;whiteSpace=wrap;html=1;fontStyle=1;fillColor=#dae8fc;strokeColor=#6c8ebf;gradientColor=#7ea6e0;" parent="1" vertex="1">
          <mxGeometry x="110" y="880" width="120" height="60" as="geometry" />
        </mxCell>
        <mxCell id="j39FSdekWfPAPFEz55jS-4" value="Satellite imagery" style="rounded=1;whiteSpace=wrap;html=1;fontStyle=1;fillColor=#b0e3e6;strokeColor=#0e8088;" parent="1" vertex="1">
          <mxGeometry x="320" y="170" width="120" height="60" as="geometry" />
        </mxCell>
        <mxCell id="ImfYDy0Mbqy3FPbespdM-20" style="edgeStyle=orthogonalEdgeStyle;rounded=0;orthogonalLoop=1;jettySize=auto;html=1;" parent="1" source="j39FSdekWfPAPFEz55jS-5" edge="1">
          <mxGeometry relative="1" as="geometry">
            <mxPoint x="510" y="450" as="targetPoint" />
          </mxGeometry>
        </mxCell>
        <mxCell id="j39FSdekWfPAPFEz55jS-5" value="Aerial photography" style="rounded=1;whiteSpace=wrap;html=1;fontStyle=1;fillColor=#b0e3e6;strokeColor=#0e8088;" parent="1" vertex="1">
          <mxGeometry x="320" y="420" width="120" height="60" as="geometry" />
        </mxCell>
        <mxCell id="j39FSdekWfPAPFEz55jS-6" value="High resolution base imagery over large extents" style="rounded=1;whiteSpace=wrap;html=1;fontStyle=1;fillColor=#dae8fc;strokeColor=#6c8ebf;" parent="1" vertex="1">
          <mxGeometry x="520" y="420" width="120" height="60" as="geometry" />
        </mxCell>
        <mxCell id="j39FSdekWfPAPFEz55jS-7" value="Digital elevation models&amp;nbsp;&lt;div&gt;(DEMS)&lt;/div&gt;" style="rounded=1;whiteSpace=wrap;html=1;fillColor=#dae8fc;strokeColor=#6c8ebf;" parent="1" vertex="1">
          <mxGeometry x="520" width="120" height="60" as="geometry" />
        </mxCell>
        <mxCell id="j39FSdekWfPAPFEz55jS-8" value="Land cover maps" style="rounded=1;whiteSpace=wrap;html=1;fontStyle=1;fillColor=#dae8fc;strokeColor=#6c8ebf;" parent="1" vertex="1">
          <mxGeometry x="520" y="110" width="120" height="60" as="geometry" />
        </mxCell>
        <mxCell id="j39FSdekWfPAPFEz55jS-9" value="Land cover indices&lt;div&gt;(NDVI, NWDI, etc)&lt;/div&gt;" style="rounded=1;whiteSpace=wrap;html=1;fontStyle=1;fillColor=#dae8fc;strokeColor=#6c8ebf;" parent="1" vertex="1">
          <mxGeometry x="520" y="210" width="120" height="60" as="geometry" />
        </mxCell>
        <mxCell id="j39FSdekWfPAPFEz55jS-10" value="Metereological data" style="rounded=1;whiteSpace=wrap;html=1;fontStyle=1;fillColor=#dae8fc;strokeColor=#6c8ebf;" parent="1" vertex="1">
          <mxGeometry x="520" y="310" width="120" height="60" as="geometry" />
        </mxCell>
        <mxCell id="1WSIElenzzLYNixdB_4k-26" style="edgeStyle=orthogonalEdgeStyle;rounded=0;orthogonalLoop=1;jettySize=auto;html=1;" parent="1" edge="1">
          <mxGeometry relative="1" as="geometry">
            <mxPoint x="960" y="710" as="targetPoint" />
            <mxPoint x="840" y="340" as="sourcePoint" />
            <Array as="points">
              <mxPoint x="810" y="340" />
              <mxPoint x="960" y="340" />
            </Array>
          </mxGeometry>
        </mxCell>
        <mxCell id="j39FSdekWfPAPFEz55jS-11" value="&lt;b&gt;imagery data (raster)&amp;nbsp;&lt;/b&gt;&lt;div&gt;&lt;font style=&quot;font-size: 10px;&quot;&gt;&lt;i&gt;.GeoTIFF&lt;/i&gt;&lt;/font&gt;&lt;/div&gt;&lt;div&gt;&lt;font style=&quot;font-size: 10px;&quot;&gt;&lt;i&gt;.ecw&lt;/i&gt;&lt;/font&gt;&lt;/div&gt;&lt;div&gt;&lt;font style=&quot;font-size: 10px;&quot;&gt;&lt;i&gt;.jpg&lt;/i&gt;&lt;/font&gt;&lt;/div&gt;&lt;div&gt;&lt;font style=&quot;font-size: 10px;&quot;&gt;&lt;i&gt;.netCDF&lt;/i&gt;&lt;/font&gt;&lt;/div&gt;&lt;div&gt;&lt;font style=&quot;font-size: 10px;&quot;&gt;and many more..&lt;/font&gt;.&lt;/div&gt;" style="rounded=1;whiteSpace=wrap;html=1;fillColor=#f5f5f5;fontColor=#333333;strokeColor=#666666;" parent="1" vertex="1">
          <mxGeometry x="710" y="285" width="120" height="110" as="geometry" />
        </mxCell>
        <mxCell id="ImfYDy0Mbqy3FPbespdM-26" style="edgeStyle=orthogonalEdgeStyle;rounded=0;orthogonalLoop=1;jettySize=auto;html=1;" parent="1" source="j39FSdekWfPAPFEz55jS-12" edge="1">
          <mxGeometry relative="1" as="geometry">
            <mxPoint x="300" y="1345" as="targetPoint" />
          </mxGeometry>
        </mxCell>
        <mxCell id="j39FSdekWfPAPFEz55jS-12" value="Census" style="rounded=1;whiteSpace=wrap;html=1;fontStyle=1;fillColor=#dae8fc;strokeColor=#6c8ebf;gradientColor=#7ea6e0;" parent="1" vertex="1">
          <mxGeometry x="110" y="1315" width="120" height="60" as="geometry" />
        </mxCell>
        <mxCell id="j39FSdekWfPAPFEz55jS-13" value="High resolution base imagery over smaller extents" style="rounded=1;whiteSpace=wrap;html=1;fontStyle=1;fillColor=#dae8fc;strokeColor=#6c8ebf;" parent="1" vertex="1">
          <mxGeometry x="520" y="510" width="120" height="60" as="geometry" />
        </mxCell>
        <mxCell id="j39FSdekWfPAPFEz55jS-14" value="" style="endArrow=classic;html=1;rounded=0;exitX=0.5;exitY=0;exitDx=0;exitDy=0;" parent="1" source="j39FSdekWfPAPFEz55jS-1" edge="1">
          <mxGeometry width="50" height="50" relative="1" as="geometry">
            <mxPoint x="160" y="290" as="sourcePoint" />
            <mxPoint x="310" y="200" as="targetPoint" />
            <Array as="points">
              <mxPoint x="180" y="200" />
            </Array>
          </mxGeometry>
        </mxCell>
        <mxCell id="j39FSdekWfPAPFEz55jS-15" value="" style="endArrow=classic;html=1;rounded=0;exitX=0.5;exitY=1;exitDx=0;exitDy=0;" parent="1" source="j39FSdekWfPAPFEz55jS-1" edge="1">
          <mxGeometry width="50" height="50" relative="1" as="geometry">
            <mxPoint x="180" y="370" as="sourcePoint" />
            <mxPoint x="310" y="450" as="targetPoint" />
            <Array as="points">
              <mxPoint x="180" y="450" />
            </Array>
          </mxGeometry>
        </mxCell>
        <mxCell id="j39FSdekWfPAPFEz55jS-16" value="" style="endArrow=classic;html=1;rounded=0;" parent="1" edge="1">
          <mxGeometry width="50" height="50" relative="1" as="geometry">
            <mxPoint x="180" y="370" as="sourcePoint" />
            <mxPoint x="310" y="550" as="targetPoint" />
            <Array as="points">
              <mxPoint x="180" y="550" />
            </Array>
          </mxGeometry>
        </mxCell>
        <mxCell id="j39FSdekWfPAPFEz55jS-17" value="" style="endArrow=classic;html=1;rounded=0;exitX=0.5;exitY=0;exitDx=0;exitDy=0;" parent="1" source="j39FSdekWfPAPFEz55jS-4" edge="1">
          <mxGeometry width="50" height="50" relative="1" as="geometry">
            <mxPoint x="240" y="400" as="sourcePoint" />
            <mxPoint x="510" y="30" as="targetPoint" />
            <Array as="points">
              <mxPoint x="380" y="30" />
            </Array>
          </mxGeometry>
        </mxCell>
        <mxCell id="j39FSdekWfPAPFEz55jS-18" value="" style="endArrow=classic;html=1;rounded=0;exitX=0.5;exitY=1;exitDx=0;exitDy=0;" parent="1" source="j39FSdekWfPAPFEz55jS-4" edge="1">
          <mxGeometry width="50" height="50" relative="1" as="geometry">
            <mxPoint x="240" y="400" as="sourcePoint" />
            <mxPoint x="510" y="340" as="targetPoint" />
            <Array as="points">
              <mxPoint x="380" y="340" />
            </Array>
          </mxGeometry>
        </mxCell>
        <mxCell id="j39FSdekWfPAPFEz55jS-19" value="" style="endArrow=classic;html=1;rounded=0;exitX=1;exitY=0.5;exitDx=0;exitDy=0;" parent="1" source="j39FSdekWfPAPFEz55jS-4" edge="1">
          <mxGeometry width="50" height="50" relative="1" as="geometry">
            <mxPoint x="240" y="400" as="sourcePoint" />
            <mxPoint x="510" y="240" as="targetPoint" />
            <Array as="points">
              <mxPoint x="480" y="200" />
              <mxPoint x="480" y="240" />
            </Array>
          </mxGeometry>
        </mxCell>
        <mxCell id="j39FSdekWfPAPFEz55jS-20" value="" style="endArrow=classic;html=1;rounded=0;exitX=1;exitY=0.5;exitDx=0;exitDy=0;" parent="1" source="j39FSdekWfPAPFEz55jS-4" edge="1">
          <mxGeometry width="50" height="50" relative="1" as="geometry">
            <mxPoint x="390" y="290" as="sourcePoint" />
            <mxPoint x="510" y="140" as="targetPoint" />
            <Array as="points">
              <mxPoint x="480" y="200" />
              <mxPoint x="480" y="140" />
            </Array>
          </mxGeometry>
        </mxCell>
        <mxCell id="j39FSdekWfPAPFEz55jS-25" value="" style="strokeWidth=1;html=1;shape=mxgraph.flowchart.annotation_2;align=left;labelPosition=right;pointerEvents=1;rotation=-180;" parent="1" vertex="1">
          <mxGeometry x="650" y="-10" width="40" height="700" as="geometry" />
        </mxCell>
        <mxCell id="j39FSdekWfPAPFEz55jS-26" value="" style="endArrow=classic;html=1;rounded=0;fontSize=14;strokeWidth=1;exitX=0;exitY=0.5;exitDx=0;exitDy=0;exitPerimeter=0;" parent="1" source="j39FSdekWfPAPFEz55jS-25" edge="1">
          <mxGeometry width="50" height="50" relative="1" as="geometry">
            <mxPoint x="710" y="390" as="sourcePoint" />
            <mxPoint x="700" y="340" as="targetPoint" />
          </mxGeometry>
        </mxCell>
        <mxCell id="ImfYDy0Mbqy3FPbespdM-1" value="Human-mande topographic elements (very high precision)" style="rounded=1;whiteSpace=wrap;html=1;fontStyle=1;fillColor=#b0e3e6;strokeColor=#0e8088;" parent="1" vertex="1">
          <mxGeometry x="310" y="880" width="120" height="60" as="geometry" />
        </mxCell>
        <mxCell id="ImfYDy0Mbqy3FPbespdM-2" value="Crowd sourced&lt;div&gt;data&amp;nbsp;&lt;/div&gt;" style="rounded=1;whiteSpace=wrap;html=1;fontStyle=1;fillColor=#dae8fc;gradientColor=#7ea6e0;strokeColor=#6c8ebf;" parent="1" vertex="1">
          <mxGeometry x="110" y="1090" width="120" height="60" as="geometry" />
        </mxCell>
        <mxCell id="ImfYDy0Mbqy3FPbespdM-31" style="edgeStyle=orthogonalEdgeStyle;rounded=0;orthogonalLoop=1;jettySize=auto;html=1;" parent="1" source="ImfYDy0Mbqy3FPbespdM-3" edge="1">
          <mxGeometry relative="1" as="geometry">
            <mxPoint x="500" y="1070" as="targetPoint" />
          </mxGeometry>
        </mxCell>
        <mxCell id="ImfYDy0Mbqy3FPbespdM-3" value="Volunteered geographic information (VGI)" style="rounded=1;whiteSpace=wrap;html=1;fontStyle=1;fillColor=#b0e3e6;strokeColor=#0e8088;" parent="1" vertex="1">
          <mxGeometry x="310" y="1040" width="120" height="60" as="geometry" />
        </mxCell>
        <mxCell id="ImfYDy0Mbqy3FPbespdM-4" value="Cadastral boundaries" style="rounded=1;whiteSpace=wrap;html=1;fontStyle=1;fillColor=#dae8fc;strokeColor=#6c8ebf;" parent="1" vertex="1">
          <mxGeometry x="510" y="820" width="120" height="60" as="geometry" />
        </mxCell>
        <mxCell id="ImfYDy0Mbqy3FPbespdM-5" value="Roads, houses, utilities networks" style="rounded=1;whiteSpace=wrap;html=1;fontStyle=1;fillColor=#dae8fc;strokeColor=#6c8ebf;" parent="1" vertex="1">
          <mxGeometry x="510" y="930" width="120" height="60" as="geometry" />
        </mxCell>
        <mxCell id="ImfYDy0Mbqy3FPbespdM-6" value="Human made and natural topographic elements" style="rounded=1;whiteSpace=wrap;html=1;fontStyle=1;fillColor=#dae8fc;strokeColor=#6c8ebf;" parent="1" vertex="1">
          <mxGeometry x="510" y="1040" width="120" height="60" as="geometry" />
        </mxCell>
        <mxCell id="ImfYDy0Mbqy3FPbespdM-32" style="edgeStyle=orthogonalEdgeStyle;rounded=0;orthogonalLoop=1;jettySize=auto;html=1;" parent="1" source="ImfYDy0Mbqy3FPbespdM-7" edge="1">
          <mxGeometry relative="1" as="geometry">
            <mxPoint x="500" y="1180" as="targetPoint" />
          </mxGeometry>
        </mxCell>
        <mxCell id="ImfYDy0Mbqy3FPbespdM-7" value="Social media and media repositories APIs" style="rounded=1;whiteSpace=wrap;html=1;fontStyle=1;fillColor=#b0e3e6;strokeColor=#0e8088;" parent="1" vertex="1">
          <mxGeometry x="310" y="1150" width="120" height="60" as="geometry" />
        </mxCell>
        <mxCell id="ImfYDy0Mbqy3FPbespdM-8" value="Qualitative data and social perceptions" style="rounded=1;whiteSpace=wrap;html=1;fontStyle=1;fillColor=#dae8fc;strokeColor=#6c8ebf;" parent="1" vertex="1">
          <mxGeometry x="510" y="1150" width="120" height="60" as="geometry" />
        </mxCell>
        <mxCell id="ImfYDy0Mbqy3FPbespdM-9" value="Aggregation at contry, district and household level" style="rounded=1;whiteSpace=wrap;html=1;fontStyle=1;fillColor=#b0e3e6;strokeColor=#0e8088;" parent="1" vertex="1">
          <mxGeometry x="310" y="1315" width="120" height="60" as="geometry" />
        </mxCell>
        <mxCell id="ImfYDy0Mbqy3FPbespdM-10" value="Demographic data" style="rounded=1;whiteSpace=wrap;html=1;fontStyle=1;fillColor=#dae8fc;strokeColor=#6c8ebf;" parent="1" vertex="1">
          <mxGeometry x="510" y="1255" width="120" height="60" as="geometry" />
        </mxCell>
        <mxCell id="ImfYDy0Mbqy3FPbespdM-11" value="Economic indicators" style="rounded=1;whiteSpace=wrap;html=1;fontStyle=1;fillColor=#dae8fc;strokeColor=#6c8ebf;" parent="1" vertex="1">
          <mxGeometry x="510" y="1365" width="120" height="60" as="geometry" />
        </mxCell>
        <mxCell id="ImfYDy0Mbqy3FPbespdM-12" value="" style="strokeWidth=1;html=1;shape=mxgraph.flowchart.annotation_2;align=left;labelPosition=right;pointerEvents=1;rotation=-180;" parent="1" vertex="1">
          <mxGeometry x="640" y="810" width="40" height="410" as="geometry" />
        </mxCell>
        <mxCell id="WP8TJN7ltj5DDx9iI1Yf-13" style="edgeStyle=orthogonalEdgeStyle;rounded=0;orthogonalLoop=1;jettySize=auto;html=1;" edge="1" parent="1" source="ImfYDy0Mbqy3FPbespdM-13">
          <mxGeometry relative="1" as="geometry">
            <mxPoint x="940" y="790" as="targetPoint" />
            <Array as="points">
              <mxPoint x="940" y="1015" />
            </Array>
          </mxGeometry>
        </mxCell>
        <mxCell id="ImfYDy0Mbqy3FPbespdM-13" value="&lt;b&gt;vector (geometries) data&lt;/b&gt;&lt;div&gt;&lt;font style=&quot;font-size: 10px;&quot;&gt;&lt;i&gt;.shp&lt;/i&gt;&lt;/font&gt;&lt;/div&gt;&lt;div&gt;&lt;font style=&quot;font-size: 10px;&quot;&gt;&lt;i&gt;.gpkg&lt;/i&gt;&lt;/font&gt;&lt;/div&gt;&lt;div&gt;&lt;font style=&quot;font-size: 10px;&quot;&gt;&lt;i&gt;.dgw&lt;/i&gt;&lt;/font&gt;&lt;/div&gt;&lt;div&gt;&lt;font style=&quot;font-size: 10px;&quot;&gt;&lt;i&gt;.json&lt;/i&gt;&lt;/font&gt;&lt;/div&gt;&lt;div&gt;&lt;font style=&quot;font-size: 10px;&quot;&gt;and many more..&lt;/font&gt;.&lt;/div&gt;" style="rounded=1;whiteSpace=wrap;html=1;fillColor=#f5f5f5;fontColor=#333333;strokeColor=#666666;" parent="1" vertex="1">
          <mxGeometry x="700" y="960" width="120" height="110" as="geometry" />
        </mxCell>
        <mxCell id="ImfYDy0Mbqy3FPbespdM-14" value="" style="endArrow=classic;html=1;rounded=0;fontSize=14;strokeWidth=1;exitX=0;exitY=0.5;exitDx=0;exitDy=0;exitPerimeter=0;" parent="1" edge="1">
          <mxGeometry width="50" height="50" relative="1" as="geometry">
            <mxPoint x="680" y="1014.8800000000001" as="sourcePoint" />
            <mxPoint x="690" y="1015" as="targetPoint" />
          </mxGeometry>
        </mxCell>
        <mxCell id="ImfYDy0Mbqy3FPbespdM-15" value="Machine learing and Artificial intelligence&lt;div&gt;Feature extraction&lt;/div&gt;" style="rounded=1;whiteSpace=wrap;html=1;fontStyle=1;fillColor=#b0e3e6;strokeColor=#0e8088;" parent="1" vertex="1">
          <mxGeometry x="895" y="720" width="120" height="60" as="geometry" />
        </mxCell>
        <mxCell id="ImfYDy0Mbqy3FPbespdM-24" value="" style="endArrow=classic;html=1;rounded=0;" parent="1" edge="1">
          <mxGeometry width="50" height="50" relative="1" as="geometry">
            <mxPoint x="430" y="910" as="sourcePoint" />
            <mxPoint x="500" y="850" as="targetPoint" />
            <Array as="points">
              <mxPoint x="470" y="910" />
              <mxPoint x="470" y="850" />
            </Array>
          </mxGeometry>
        </mxCell>
        <mxCell id="ImfYDy0Mbqy3FPbespdM-25" value="" style="endArrow=classic;html=1;rounded=0;exitX=1;exitY=0.5;exitDx=0;exitDy=0;" parent="1" source="ImfYDy0Mbqy3FPbespdM-1" edge="1">
          <mxGeometry width="50" height="50" relative="1" as="geometry">
            <mxPoint x="440" y="920" as="sourcePoint" />
            <mxPoint x="500" y="960" as="targetPoint" />
            <Array as="points">
              <mxPoint x="470" y="910" />
              <mxPoint x="470" y="960" />
            </Array>
          </mxGeometry>
        </mxCell>
        <mxCell id="ImfYDy0Mbqy3FPbespdM-27" value="" style="endArrow=classic;html=1;rounded=0;" parent="1" edge="1">
          <mxGeometry width="50" height="50" relative="1" as="geometry">
            <mxPoint x="430" y="1345" as="sourcePoint" />
            <mxPoint x="500" y="1285" as="targetPoint" />
            <Array as="points">
              <mxPoint x="470" y="1345" />
              <mxPoint x="470" y="1285" />
            </Array>
          </mxGeometry>
        </mxCell>
        <mxCell id="ImfYDy0Mbqy3FPbespdM-28" value="" style="endArrow=classic;html=1;rounded=0;" parent="1" edge="1">
          <mxGeometry width="50" height="50" relative="1" as="geometry">
            <mxPoint x="230" y="1120" as="sourcePoint" />
            <mxPoint x="300" y="1060" as="targetPoint" />
            <Array as="points">
              <mxPoint x="270" y="1120" />
              <mxPoint x="270" y="1060" />
            </Array>
          </mxGeometry>
        </mxCell>
        <mxCell id="ImfYDy0Mbqy3FPbespdM-29" value="" style="endArrow=classic;html=1;rounded=0;exitX=1;exitY=0.5;exitDx=0;exitDy=0;" parent="1" edge="1">
          <mxGeometry width="50" height="50" relative="1" as="geometry">
            <mxPoint x="430" y="1345" as="sourcePoint" />
            <mxPoint x="500" y="1395" as="targetPoint" />
            <Array as="points">
              <mxPoint x="470" y="1345" />
              <mxPoint x="470" y="1395" />
            </Array>
          </mxGeometry>
        </mxCell>
        <mxCell id="ImfYDy0Mbqy3FPbespdM-30" value="" style="endArrow=classic;html=1;rounded=0;exitX=1;exitY=0.5;exitDx=0;exitDy=0;" parent="1" edge="1">
          <mxGeometry width="50" height="50" relative="1" as="geometry">
            <mxPoint x="230" y="1120" as="sourcePoint" />
            <mxPoint x="300" y="1180" as="targetPoint" />
            <Array as="points">
              <mxPoint x="270" y="1120" />
              <mxPoint x="270" y="1180" />
            </Array>
          </mxGeometry>
        </mxCell>
        <mxCell id="A5U87nTgYRJUxtVlopil-1" value="" style="strokeWidth=1;html=1;shape=mxgraph.flowchart.annotation_2;align=left;labelPosition=right;pointerEvents=1;rotation=-180;" parent="1" vertex="1">
          <mxGeometry x="640" y="1240" width="40" height="200" as="geometry" />
        </mxCell>
        <mxCell id="A5U87nTgYRJUxtVlopil-2" value="" style="endArrow=classic;html=1;rounded=0;fontSize=14;strokeWidth=1;exitX=0;exitY=0.5;exitDx=0;exitDy=0;exitPerimeter=0;" parent="1" edge="1">
          <mxGeometry width="50" height="50" relative="1" as="geometry">
            <mxPoint x="680" y="1339.76" as="sourcePoint" />
            <mxPoint x="690" y="1340" as="targetPoint" />
          </mxGeometry>
        </mxCell>
        <mxCell id="1WSIElenzzLYNixdB_4k-23" style="edgeStyle=orthogonalEdgeStyle;rounded=0;orthogonalLoop=1;jettySize=auto;html=1;" parent="1" edge="1">
          <mxGeometry relative="1" as="geometry">
            <mxPoint x="960" y="790" as="targetPoint" />
            <mxPoint x="800" y="1340" as="sourcePoint" />
            <Array as="points">
              <mxPoint x="960" y="1340" />
            </Array>
          </mxGeometry>
        </mxCell>
        <mxCell id="A5U87nTgYRJUxtVlopil-3" value="&lt;b&gt;Tabular data (tables)&lt;/b&gt;&lt;div&gt;&lt;font style=&quot;font-size: 10px;&quot;&gt;&lt;i&gt;.csv&lt;/i&gt;&lt;/font&gt;&lt;/div&gt;&lt;div&gt;&lt;font style=&quot;font-size: 10px;&quot;&gt;&lt;i&gt;.xls&lt;/i&gt;&lt;/font&gt;&lt;/div&gt;&lt;div&gt;&lt;font style=&quot;font-size: 10px;&quot;&gt;&lt;i&gt;.odt&lt;/i&gt;&lt;/font&gt;&lt;/div&gt;&lt;div&gt;&lt;font style=&quot;font-size: 10px;&quot;&gt;and many more..&lt;/font&gt;.&lt;/div&gt;" style="rounded=1;whiteSpace=wrap;html=1;fillColor=#f5f5f5;fontColor=#333333;strokeColor=#666666;" parent="1" vertex="1">
          <mxGeometry x="700" y="1295" width="120" height="90" as="geometry" />
        </mxCell>
        <mxCell id="A5U87nTgYRJUxtVlopil-4" value="" style="group" parent="1" vertex="1" connectable="0">
          <mxGeometry x="765" y="-10" width="160" height="193" as="geometry" />
        </mxCell>
        <mxCell id="ImfYDy0Mbqy3FPbespdM-33" value="" style="rounded=1;whiteSpace=wrap;html=1;fontStyle=1;fillColor=#dae8fc;gradientColor=#7ea6e0;strokeColor=#6c8ebf;" parent="A5U87nTgYRJUxtVlopil-4" vertex="1">
          <mxGeometry x="23" y="38" width="20" height="20" as="geometry" />
        </mxCell>
        <mxCell id="ImfYDy0Mbqy3FPbespdM-34" value="" style="rounded=1;whiteSpace=wrap;html=1;fontStyle=1;fillColor=#b0e3e6;strokeColor=#0e8088;" parent="A5U87nTgYRJUxtVlopil-4" vertex="1">
          <mxGeometry x="23" y="78" width="20" height="20" as="geometry" />
        </mxCell>
        <mxCell id="ImfYDy0Mbqy3FPbespdM-36" value="" style="rounded=1;whiteSpace=wrap;html=1;fontStyle=1;fillColor=#dae8fc;strokeColor=#6c8ebf;" parent="A5U87nTgYRJUxtVlopil-4" vertex="1">
          <mxGeometry x="23" y="118" width="20" height="20" as="geometry" />
        </mxCell>
        <mxCell id="ImfYDy0Mbqy3FPbespdM-37" value="" style="rounded=1;whiteSpace=wrap;html=1;fillColor=#f5f5f5;fontColor=#333333;strokeColor=#666666;" parent="A5U87nTgYRJUxtVlopil-4" vertex="1">
          <mxGeometry x="23" y="158" width="20" height="20" as="geometry" />
        </mxCell>
        <mxCell id="ImfYDy0Mbqy3FPbespdM-38" value="Data acquisition" style="text;html=1;align=center;verticalAlign=middle;resizable=0;points=[];autosize=1;strokeColor=none;fillColor=none;" parent="A5U87nTgYRJUxtVlopil-4" vertex="1">
          <mxGeometry x="43" y="33" width="110" height="30" as="geometry" />
        </mxCell>
        <mxCell id="ImfYDy0Mbqy3FPbespdM-39" value="Data processing" style="text;html=1;align=center;verticalAlign=middle;resizable=0;points=[];autosize=1;strokeColor=none;fillColor=none;" parent="A5U87nTgYRJUxtVlopil-4" vertex="1">
          <mxGeometry x="43" y="73" width="110" height="30" as="geometry" />
        </mxCell>
        <mxCell id="ImfYDy0Mbqy3FPbespdM-40" value="Data type" style="text;html=1;align=center;verticalAlign=middle;resizable=0;points=[];autosize=1;strokeColor=none;fillColor=none;" parent="A5U87nTgYRJUxtVlopil-4" vertex="1">
          <mxGeometry x="49" y="113" width="70" height="30" as="geometry" />
        </mxCell>
        <mxCell id="ImfYDy0Mbqy3FPbespdM-41" value="Data format&amp;nbsp;" style="text;html=1;align=center;verticalAlign=middle;resizable=0;points=[];autosize=1;strokeColor=none;fillColor=none;" parent="A5U87nTgYRJUxtVlopil-4" vertex="1">
          <mxGeometry x="43" y="153" width="90" height="30" as="geometry" />
        </mxCell>
        <mxCell id="ImfYDy0Mbqy3FPbespdM-43" value="&lt;b&gt;DIAGRAM KEY&lt;/b&gt;" style="text;html=1;align=center;verticalAlign=middle;resizable=0;points=[];autosize=1;strokeColor=none;fillColor=none;" parent="A5U87nTgYRJUxtVlopil-4" vertex="1">
          <mxGeometry x="25" width="110" height="30" as="geometry" />
        </mxCell>
        <mxCell id="ImfYDy0Mbqy3FPbespdM-46" value="" style="rounded=0;whiteSpace=wrap;html=1;fillColor=none;" parent="A5U87nTgYRJUxtVlopil-4" vertex="1">
          <mxGeometry y="23" width="160" height="170" as="geometry" />
        </mxCell>
        <mxCell id="WP8TJN7ltj5DDx9iI1Yf-7" style="edgeStyle=orthogonalEdgeStyle;rounded=0;orthogonalLoop=1;jettySize=auto;html=1;" edge="1" parent="1" source="1WSIElenzzLYNixdB_4k-1">
          <mxGeometry relative="1" as="geometry">
            <mxPoint x="310" y="750" as="targetPoint" />
            <Array as="points">
              <mxPoint x="280" y="700" />
              <mxPoint x="280" y="750" />
            </Array>
          </mxGeometry>
        </mxCell>
        <mxCell id="1WSIElenzzLYNixdB_4k-1" value="Active Remote Sensing" style="rounded=1;whiteSpace=wrap;html=1;fontStyle=1;fillColor=#dae8fc;strokeColor=#6c8ebf;gradientColor=#7ea6e0;" parent="1" vertex="1">
          <mxGeometry x="120" y="670" width="120" height="60" as="geometry" />
        </mxCell>
        <mxCell id="1WSIElenzzLYNixdB_4k-2" value="LiDAR / Laser scanning" style="rounded=1;whiteSpace=wrap;html=1;fontStyle=1;fillColor=#b0e3e6;strokeColor=#0e8088;" parent="1" vertex="1">
          <mxGeometry x="320" y="720" width="120" height="60" as="geometry" />
        </mxCell>
        <mxCell id="1WSIElenzzLYNixdB_4k-4" value="DEM &lt;font style=&quot;font-size: 10px;&quot;&gt;(&lt;/font&gt;&lt;font style=&quot;font-size: 7px;&quot;&gt;Digital Elevation Models&lt;/font&gt;&lt;font style=&quot;font-size: 10px;&quot;&gt;)&lt;/font&gt;&lt;div&gt;&lt;br&gt;&lt;/div&gt;&lt;div&gt; DSM &lt;font style=&quot;font-size: 10px;&quot;&gt;(&lt;/font&gt;&lt;font style=&quot;font-size: 7px;&quot;&gt;Digital Surface Models&lt;/font&gt;&lt;font style=&quot;font-size: 10px;&quot;&gt;)&lt;/font&gt;&lt;/div&gt;" style="rounded=1;whiteSpace=wrap;html=1;fontStyle=1;fillColor=#dae8fc;strokeColor=#6c8ebf;" parent="1" vertex="1">
          <mxGeometry x="520" y="720" width="120" height="60" as="geometry" />
        </mxCell>
        <mxCell id="1WSIElenzzLYNixdB_4k-8" style="edgeStyle=orthogonalEdgeStyle;rounded=0;orthogonalLoop=1;jettySize=auto;html=1;" parent="1" edge="1">
          <mxGeometry relative="1" as="geometry">
            <mxPoint x="510" y="749.8" as="targetPoint" />
            <mxPoint x="440" y="749.8" as="sourcePoint" />
          </mxGeometry>
        </mxCell>
        <mxCell id="1WSIElenzzLYNixdB_4k-10" style="edgeStyle=orthogonalEdgeStyle;rounded=0;orthogonalLoop=1;jettySize=auto;html=1;" parent="1" edge="1">
          <mxGeometry relative="1" as="geometry">
            <mxPoint x="700" y="750" as="targetPoint" />
            <mxPoint x="640" y="749.58" as="sourcePoint" />
          </mxGeometry>
        </mxCell>
        <mxCell id="WP8TJN7ltj5DDx9iI1Yf-10" style="edgeStyle=orthogonalEdgeStyle;rounded=0;orthogonalLoop=1;jettySize=auto;html=1;" edge="1" parent="1" source="1WSIElenzzLYNixdB_4k-11">
          <mxGeometry relative="1" as="geometry">
            <mxPoint x="880" y="747.5" as="targetPoint" />
          </mxGeometry>
        </mxCell>
        <mxCell id="1WSIElenzzLYNixdB_4k-11" value="&lt;b&gt;Point Cloud Data&lt;/b&gt;&lt;br&gt;&lt;div&gt;&lt;font style=&quot;font-size: 10px;&quot;&gt;&lt;i&gt;.las&lt;br&gt;&lt;/i&gt;&lt;/font&gt;&lt;/div&gt;&lt;div&gt;&lt;font style=&quot;font-size: 10px;&quot;&gt;&lt;i&gt;.laz&lt;/i&gt;&lt;/font&gt;&lt;/div&gt;" style="rounded=1;whiteSpace=wrap;html=1;fillColor=#f5f5f5;fontColor=#333333;strokeColor=#666666;" parent="1" vertex="1">
          <mxGeometry x="710" y="720" width="120" height="55" as="geometry" />
        </mxCell>
        <mxCell id="1WSIElenzzLYNixdB_4k-12" value="Sensor data" style="rounded=1;whiteSpace=wrap;html=1;fontStyle=1;fillColor=#dae8fc;strokeColor=#6c8ebf;gradientColor=#7ea6e0;" parent="1" vertex="1">
          <mxGeometry x="110" y="1470" width="120" height="60" as="geometry" />
        </mxCell>
        <mxCell id="1WSIElenzzLYNixdB_4k-13" value="Temperature, Atmospheric, Pressure, etc sensors" style="rounded=1;whiteSpace=wrap;html=1;fontStyle=1;fillColor=#b0e3e6;strokeColor=#0e8088;" parent="1" vertex="1">
          <mxGeometry x="310" y="1470" width="120" height="60" as="geometry" />
        </mxCell>
        <mxCell id="1WSIElenzzLYNixdB_4k-14" value="Environmental data" style="rounded=1;whiteSpace=wrap;html=1;fontStyle=1;fillColor=#dae8fc;strokeColor=#6c8ebf;" parent="1" vertex="1">
          <mxGeometry x="510" y="1470" width="120" height="60" as="geometry" />
        </mxCell>
        <mxCell id="1WSIElenzzLYNixdB_4k-15" style="edgeStyle=orthogonalEdgeStyle;rounded=0;orthogonalLoop=1;jettySize=auto;html=1;" parent="1" edge="1">
          <mxGeometry relative="1" as="geometry">
            <mxPoint x="500" y="1499.8" as="targetPoint" />
            <mxPoint x="430" y="1499.8" as="sourcePoint" />
          </mxGeometry>
        </mxCell>
        <mxCell id="1WSIElenzzLYNixdB_4k-16" style="edgeStyle=orthogonalEdgeStyle;rounded=0;orthogonalLoop=1;jettySize=auto;html=1;" parent="1" edge="1">
          <mxGeometry relative="1" as="geometry">
            <mxPoint x="300" y="1499.8" as="targetPoint" />
            <mxPoint x="230" y="1499.8" as="sourcePoint" />
          </mxGeometry>
        </mxCell>
        <mxCell id="1WSIElenzzLYNixdB_4k-17" style="edgeStyle=orthogonalEdgeStyle;rounded=0;orthogonalLoop=1;jettySize=auto;html=1;" parent="1" edge="1">
          <mxGeometry relative="1" as="geometry">
            <mxPoint x="690" y="1500" as="targetPoint" />
            <mxPoint x="630" y="1499.58" as="sourcePoint" />
          </mxGeometry>
        </mxCell>
        <mxCell id="1WSIElenzzLYNixdB_4k-24" style="edgeStyle=orthogonalEdgeStyle;rounded=0;orthogonalLoop=1;jettySize=auto;html=1;" parent="1" edge="1">
          <mxGeometry relative="1" as="geometry">
            <mxPoint x="980" y="790" as="targetPoint" />
            <mxPoint x="800" y="1500" as="sourcePoint" />
          </mxGeometry>
        </mxCell>
        <mxCell id="1WSIElenzzLYNixdB_4k-18" value="&lt;b&gt;Tabular data (tables)&lt;/b&gt;&lt;div&gt;&lt;font style=&quot;font-size: 10px;&quot;&gt;&lt;i&gt;.csv&lt;/i&gt;&lt;/font&gt;&lt;/div&gt;&lt;div&gt;&lt;font style=&quot;font-size: 10px;&quot;&gt;&lt;i&gt;.json&lt;/i&gt;&lt;/font&gt;&lt;/div&gt;&lt;div&gt;&lt;font style=&quot;font-size: 10px;&quot;&gt;and many more..&lt;/font&gt;.&lt;/div&gt;" style="rounded=1;whiteSpace=wrap;html=1;fillColor=#f5f5f5;fontColor=#333333;strokeColor=#666666;" parent="1" vertex="1">
          <mxGeometry x="700" y="1462.5" width="120" height="75" as="geometry" />
        </mxCell>
        <mxCell id="WP8TJN7ltj5DDx9iI1Yf-2" value="Radar" style="rounded=1;whiteSpace=wrap;html=1;fontStyle=1;fillColor=#b0e3e6;strokeColor=#0e8088;" vertex="1" parent="1">
          <mxGeometry x="320" y="620" width="120" height="60" as="geometry" />
        </mxCell>
        <mxCell id="WP8TJN7ltj5DDx9iI1Yf-3" value="Land cover&lt;div&gt;Metereological data&lt;/div&gt;&lt;div&gt;etc&lt;/div&gt;" style="rounded=1;whiteSpace=wrap;html=1;fontStyle=1;fillColor=#dae8fc;strokeColor=#6c8ebf;" vertex="1" parent="1">
          <mxGeometry x="520" y="620" width="120" height="60" as="geometry" />
        </mxCell>
        <mxCell id="WP8TJN7ltj5DDx9iI1Yf-4" style="edgeStyle=orthogonalEdgeStyle;rounded=0;orthogonalLoop=1;jettySize=auto;html=1;" edge="1" parent="1">
          <mxGeometry relative="1" as="geometry">
            <mxPoint x="510" y="649.8" as="targetPoint" />
            <mxPoint x="440" y="649.8" as="sourcePoint" />
          </mxGeometry>
        </mxCell>
        <mxCell id="WP8TJN7ltj5DDx9iI1Yf-9" value="" style="endArrow=classic;html=1;rounded=0;" edge="1" parent="1">
          <mxGeometry width="50" height="50" relative="1" as="geometry">
            <mxPoint x="240" y="700" as="sourcePoint" />
            <mxPoint x="310" y="650" as="targetPoint" />
            <Array as="points">
              <mxPoint x="280" y="700" />
              <mxPoint x="280" y="650" />
            </Array>
          </mxGeometry>
        </mxCell>
      </root>
    </mxGraphModel>
  </diagram>
</mxfile>
